#!OML:ASF F:\VICON\USERDATA\INSTALL\rory3\rory3.ASF
:FULLY-SPECIFIED
:DEGREES
177
root 4.94124 17.8151 8.57137 -5.06481 -10.2853 -0.537468
lowerback 23.0441 -1.69582 3.00537
upperback 3.50947 -0.987038 5.25723
thorax -8.95943 -0.495773 4.39315
lowerneck -5.44478 -7.37788 -6.36854
upperneck 31.2634 -9.0825 -2.31996
head 11.2282 -5.14853 -0.774374
rclavicle -2.22639e-014 -5.40694e-014
rhumerus -52.0464 -25.6577 -43.852
rradius 90.5755
rwrist 30.9323
rhand -31.385 10.0164
rfingers 7.12502
rthumb -4.65494 -19.9125
lclavicle -2.22639e-014 -5.40694e-014
lhumerus -57.0536 13.4147 70.9953
lradius 51.2702
lwrist 12.5529
lhand -12.2665 50.3388
lfingers 7.12502
lthumb 13.8002 79.861
rfemur 10.5519 10.655 20.762
rtibia 44.02
rfoot -4.02545 -15.1065
rtoes 8.07655
lfemur -24.6532 0.507382 -16.172
ltibia 36.2458
lfoot 1.08175 -4.41715
ltoes -19.7256
178
root 4.93424 17.7931 8.34424 -4.7739 -11.0363 -0.742184
lowerback 22.893 -1.63745 3.22176
upperback 3.71526 -0.874826 5.37227
thorax -8.65736 -0.452087 4.34737
lowerneck -5.45942 -7.16807 -6.42764
upperneck 30.8659 -8.75239 -2.35284
head 11.0703 -5.00669 -0.725154
rclavicle 2.78299e-015 5.725e-014
rhumerus -50.5779 -25.3908 -44.9274
rradius 88.0244
rwrist 30.9829
rhand -32.6654 11.9192
rfingers 7.12502
rthumb -5.89116 -17.9789
lclavicle 2.78299e-015 5.725e-014
lhumerus -56.6857 14.0362 71.1417
lradius 51.0642
lwrist 12.6392
lhand -12.5546 50.7075
lfingers 7.12502
lthumb 13.5225 80.2485
rfemur 10.7619 11.5686 20.9134
rtibia 42.4803
rfoot -4.59552 -14.556
rtoes 1.0479
lfemur -25.2407 0.518418 -15.5528
ltibia 35.6244
lfoot 1.77078 -3.9072
ltoes -18.9185
179
root 4.92624 17.7782 8.11843 -4.51713 -11.783 -0.63313
lowerback 23.1545 -1.54947 3.10317
upperback 3.67839 -0.769567 5.39025
thorax -8.84036 -0.397878 4.41793
lowerneck -5.72088 -6.98798 -6.47936
upperneck 30.8322 -8.45187 -2.40992
head 11.1022 -4.88281 -0.713522
rclavicle 1.98785e-015 -5.24792e-014
rhumerus -49.2761 -24.8355 -46.0038
rradius 85.26
rwrist 30.9331
rhand -34.1735 13.3652
rfingers 7.12502
rthumb -7.34706 -16.4872
lclavicle 1.98785e-015 -5.24792e-014
lhumerus -56.7247 14.5759 71.1436
lradius 50.9828
lwrist 12.5989
lhand -12.7118 50.3341
lfingers 7.12502
lthumb 13.371 79.885
rfemur 10.8902 12.3202 20.6133
rtibia 40.9862
rfoot -5.46095 -13.7995
rtoes -3.8301
lfemur -25.7452 0.461453 -15.2701
ltibia 34.8467
lfoot 2.5552 -3.29398
ltoes -18.8621
180
root 4.91119 17.763 7.88648 -4.26329 -12.6681 -0.778218
lowerback 23.3084 -1.41841 3.26005
upperback 3.87708 -0.571092 5.35304
thorax -8.71222 -0.312218 4.22397
lowerneck -6.15671 -6.87023 -6.16136
upperneck 30.607 -8.27109 -2.50761
head 11.0716 -4.77292 -0.790328
rclavicle 7.95139e-016 -3.65764e-014
rhumerus -47.6542 -24.5923 -47.4106
rradius 82.1816
rwrist 30.7602
rhand -35.5092 14.7772
rfingers 7.12502
rthumb -8.63621 -15.0261
lclavicle 7.95139e-016 -3.65764e-014
lhumerus -56.1716 14.9896 71.132
lradius 50.761
lwrist 12.4011
lhand -12.6879 50.5884
lfingers 7.12502
lthumb 13.394 80.1378
rfemur 10.926 13.1913 20.6813
rtibia 39.5742
rfoot -6.48341 -13.1039
rtoes -7.08352
lfemur -26.1075 0.321392 -14.5939
ltibia 33.9208
lfoot 3.48686 -2.40721
ltoes -19.0157
181
root 4.8892 17.7482 7.64696 -4.05104 -13.5627 -0.954254
lowerback 23.6082 -1.11303 3.48472
upperback 3.80726 -0.0858366 5.44255
thorax -8.97227 -0.0871145 4.06111
lowerneck -5.75032 -6.84575 -6.51389
upperneck 30.4641 -8.25892 -2.31495
head 10.9671 -4.78398 -0.640648
rclavicle -5.24792e-014 4.77083e-014
rhumerus -46.6309 -24.4187 -48.0133
rradius 78.736
rwrist 30.8383
rhand -36.2033 16.2072
rfingers 7.12502
rthumb -9.30598 -13.5674
lclavicle -5.24792e-014 4.77083e-014
lhumerus -55.9463 14.7319 71.6279
lradius 50.4767
lwrist 12.2841
lhand -12.742 50.7828
lfingers 7.12502
lthumb 13.3418 80.3356
rfemur 10.8194 14.0408 20.8342
rtibia 38.3485
rfoot -7.9083 -11.8905
rtoes -7.61716
lfemur -26.3027 0.205447 -13.8079
ltibia 32.7914
lfoot 4.65286 -1.50163
ltoes -18.9626
